<?xml version="1.0" encoding="UTF-8" standalone="no"?>
<!-- Created with Inkscape (http://www.inkscape.org/) -->

<svg
   width="1024"
   height="1024"
   viewBox="0 0 270.93333 270.93334"
   version="1.1"
   id="svg192"
   xmlns="http://www.w3.org/2000/svg"
   xmlns:svg="http://www.w3.org/2000/svg">
  <defs
     id="defs189" />
  <g
     id="layer1">
    <path
       style="fill:#ff6600;stroke-width:0.781028"
       d="m 528.59663,633.51592 c -0.38584,-22.04849 0.86507,-151.11742 1.56462,-161.43839 0.37982,-5.60375 0.43858,-5.73468 3.57212,-7.95985 8.37776,-5.94916 93.47796,-58.08538 113.12179,-69.30351 2.74385,-1.56695 4.81939,-3.287 4.81238,-3.98814 -0.008,-0.7751 -4.55832,-3.74096 -12.25554,-7.98759 -14.39333,-7.94093 -26.64622,-15.52492 -27.02289,-16.72595 -0.35752,-1.13997 3.96988,-4.03185 15.50813,-10.36364 l 9.59761,-5.26684 6.2066,3.11314 c 9.24106,4.63517 29.31644,16.20926 33.83365,19.50616 l 3.95627,2.8875 0.80117,56.9725 c 0.44065,31.33488 0.71015,71.03476 0.5989,88.22196 l -0.20228,31.24946 -2.1477,1.82634 c -3.05598,2.59872 -20.98021,13.97732 -39.14895,24.85239 -47.45612,28.40533 -98.48998,55.54351 -110.58332,58.8047 l -2.12553,0.57319 z"
       id="path7619"
       transform="scale(0.26458333)" />
    <path
       style="fill:#ff6600;stroke-width:0.781028"
       d="m 491.11829,635.93017 c -20.40148,-8.41484 -98.9236,-54.58235 -137.89893,-81.07843 l -7.31262,-4.97124 -0.14493,-8.66355 c -0.13745,-8.21697 0.091,-30.69001 1.3031,-128.20452 l 0.52445,-42.19116 2.43432,-2.27644 c 9.27192,-8.6706 105.67955,-71.71064 141.44136,-92.48718 l 12.35185,-7.17605 5.87991,0.0203 c 4.25936,0.0147 10.52793,1.12185 22.74453,4.01719 36.66356,8.68927 131.76468,34.63146 133.73253,36.48028 0.38561,0.36228 0.51411,1.17275 0.28554,1.80104 -0.42477,1.16761 -23.75017,16.24598 -65.04309,42.04617 -45.34368,28.33114 -80.94058,49.37919 -85.54167,50.57984 -5.50883,1.43751 -48.33711,-9.01841 -112.07302,-27.36105 -22.021,-6.33745 -24.55964,-6.6651 -28.46225,-3.67346 -4.84696,3.71555 -6.59898,12.18278 -3.34631,16.1722 0.87799,1.07686 16.0718,10.59025 33.76403,21.14088 43.81456,26.12847 68.8806,41.36929 81.2445,49.39881 l 10.38987,6.74753 0.65153,5.51522 c 0.35834,3.03338 0.64089,17.34881 0.62786,31.81209 -0.013,14.46328 -0.0151,47.0362 -0.005,72.38426 0.0217,52.72237 -0.20616,62.11726 -1.50638,62.09962 -0.49581,-0.007 -3.21451,-0.96626 -6.04153,-2.13231 z"
       id="path7658"
       transform="scale(0.26458333)" />
    <text
       xml:space="preserve"
       style="font-style:normal;font-variant:normal;font-weight:bold;font-stretch:normal;font-size:18.2195px;line-height:1.2;font-family:'SEBANG Gothic OTF';-inkscape-font-specification:'SEBANG Gothic OTF Bold';fill:#000000;fill-opacity:1;stroke:none;stroke-width:0.341615"
       x="130.91859"
       y="197.00546"
       id="text9111"
       transform="scale(1.0412797,0.96035674)"><tspan
         id="tspan9109"
         style="font-style:normal;font-variant:normal;font-weight:bold;font-stretch:normal;font-size:18.2195px;font-family:'SEBANG Gothic OTF';-inkscape-font-specification:'SEBANG Gothic OTF Bold';text-align:center;text-anchor:middle;stroke-width:0.341615"
         x="130.91859"
         y="197.00546">IDEAPOT</tspan></text>
  </g>
</svg>
